<svg id="Capa_1" data-name="Capa 1" xmlns="http://www.w3.org/2000/svg" viewBox="0 0 496.5 492.65"><defs><style>.cls-2{fill:none;stroke:#f9dc0b;stroke-miterlimit:10;stroke-width:30px}</style></defs><path d="M19.39 151.98c-3.1 10.78-12.1 52.51 3.82 84.38 0 0 29 82.83 111.32 151.15 0 0 73.31 67.69 119.16 79.23s62.62 21.71 96.36-5.13c0 0 25.15-28.72 26.24-49.46a17.05 17.05 0 00-8.38-11.6l-78-48.84s-10.91-6.13-18.7 4.48l-24.44 33.3s-7.89 8.08-20.29-.58-133.13-100.63-125.64-141.8c0 0 .35-2.31 1.4-2.58l35.79-25.73s7.41-6.94 3.19-16.46l-56.46-83.6s-6.18-8.13-21.31.92c0 0-29.15 14-39.36 24-1.33 1.26-4.19 6.51-4.7 8.32z" stroke-width="28.08" fill="none" stroke="#f9dc0b" stroke-miterlimit="10"/><path class="cls-2" d="M92.47 130.21V51a36 36 0 0136-36h317a36 36 0 0136 36v221.54a36 36 0 01-36 36H134.7" transform="translate(.03 -.02)"/><path class="cls-2" d="M102.13 31.33l158.87 119a40.74 40.74 0 0049.15-.21L472 26.64" transform="translate(.03 -.02)"/></svg>