<svg height="512" viewBox="0 0 58 53" width="512" xmlns="http://www.w3.org/2000/svg"><g id="Page-1" fill="none" fill-rule="evenodd"><g id="038---Spilling-Coffee" fill-rule="nonzero" transform="translate(0 -2)"><path id="Shape" d="M7.14 28.03a15.014 15.014 0 01-3.55-2.63 12.2 12.2 0 01-3.33-5.74 9.236 9.236 0 012.64-8.89 6.512 6.512 0 015.62-2.06c2.61.35 4.87 2.29 6.45 4.13l-2.95 4.28a9.46 9.46 0 00-2.98-2.96 2.475 2.475 0 00-3.48 1.17c-1.62 3.06.69 6.22 3.25 7.88z" fill="#c03a2b"/><path id="Shape" d="M46.39 31.75c-2.4 1.83-5.84 2.93-10.23 2.7-3.19-.17-5.02-.89-6.07-1.98-2.88-2.97.1-8.61-2.96-12.71a11.31 11.31 0 00-9.94-4.27c-.87-2.13-1.07-3.82-.47-4.81 0-.01 0-.01.01-.02v-.01c.076-.115.163-.222.26-.32 2.54-2.54 12.19 3 21.57 12.37a79.128 79.128 0 017.83 9.05z" fill="#bdc3c7"/><path id="Shape" d="M50.58 44.54c-3.95 3.4-23.62 18.89-38.19 4.32-6.55-6.54-7.02-14.12-5.25-20.83a34.233 34.233 0 011.67-4.82 46.2 46.2 0 013.21-6.09c1.04-1.68 2.08-3.14 2.95-4.28.72-.94 1.32-1.67 1.75-2.16-.6.99-.4 2.68.47 4.81 1.74 4.29 6.17 10.4 12.17 16.4.22.22.44.43.66.65 8.78 8.6 17.65 13.76 20.56 12z" fill="#e64c3c"/><path id="Shape" d="M46.39 31.75a79.128 79.128 0 00-7.83-9.05c-9.38-9.37-19.03-14.91-21.57-12.37a2.019 2.019 0 00-.26.32v.01c-.01.01-.01.01-.01.02-.6.99-.4 2.68.47 4.81 1.74 4.29 6.17 10.4 12.17 16.4.22.22.44.43.66.65 8.78 8.6 17.65 13.76 20.56 12z" fill="#bdc3c7"/><ellipse id="Oval" cx="42.091" cy="6.438" fill="#a56a43" rx="3" ry="5" transform="rotate(-45 42.094 6.446)"/><path id="Shape" d="M25.11 44.64c-2.79 2.8-6.63 3.59-9.09 2.04 1.76-1.85.42-3.25 2.27-5.09 1.88-1.89 3.29-.48 5.18-2.36 1.84-1.85.5-3.24 2.27-5.09.282.181.543.393.78.63 2.33 2.34 1.71 6.76-1.41 9.87z" fill="#f29c1f"/><path id="Shape" d="M25.74 34.14c-1.77 1.85-.43 3.24-2.27 5.09-1.89 1.88-3.3.47-5.18 2.36-1.85 1.84-.51 3.24-2.27 5.09a4.68 4.68 0 01-.78-.63c-2.34-2.34-1.71-6.76 1.41-9.87 2.79-2.8 6.63-3.59 9.09-2.04z" fill="#e57e25"/><path id="Shape" d="M30.09 32.47l-.07.07c-.22-.22-.44-.43-.66-.65-6-6-10.43-12.11-12.17-16.4a11.31 11.31 0 019.94 4.27c3.06 4.1.08 9.74 2.96 12.71z" fill="#a56a43"/><path id="Shape" d="M46.39 31.75a79.128 79.128 0 00-7.83-9.05c-9.38-9.37-19.03-14.91-21.57-12.37a2.019 2.019 0 00-.26.32v.01c-.01.01-.01.01-.01.02-.6.99-.4 2.68.47 4.81 1.74 4.29 6.17 10.4 12.17 16.4.22.22.44.43.66.65 8.78 8.6 17.65 13.76 20.56 12 1.029-.745-.47-3.29-.47-3.29zm-14.97-.64l-.65-.63c-.71-.71-1.39-1.42-2.07-2.14-4.25-4.57-7.67-9.26-9.32-12.81-.12-.27-.24-.53-.34-.79a6.159 6.159 0 01-.65-2.89l.14-.12c.086-.014.173-.02.26-.02 2.88 0 10.29 4.35 18.36 12.41a78.277 78.277 0 017.44 8.56l.06.17 3.22 9.83c-2.76-.75-7.53-3.6-12.94-8.33a77.76 77.76 0 01-3.51-3.24z" fill="#ecf0f1"/><path id="Shape" d="M57.97 27.98A25.8 25.8 0 0154.6 39.9a6.055 6.055 0 01-4.937 2.939h-.035a5.853 5.853 0 01-1.928-.209 18.443 18.443 0 01-3.5-1.55c-.73-.41-1.51-.88-2.34-1.42a61.811 61.811 0 01-6.93-5.31c.39.04.8.08 1.23.1 4.39.23 7.83-.87 10.23-2.7a9.583 9.583 0 002.52-12.84c-4.17-6.99 9.88-7.09 9.06 9.07z" fill="#a56a43"/><path id="Shape" d="M50.77 36.64a14.231 14.231 0 01-6.57 4.44c-.73-.41-1.51-.88-2.34-1.42a12.847 12.847 0 007.37-4.3 1.001 1.001 0 011.54 1.28z" fill="#805333"/></g></g></svg>