<svg id="Слой_1" data-name="Слой 1" xmlns="http://www.w3.org/2000/svg" viewBox="0 0 290.6 512"><path d="M290 511h-82a24.86 24.86 0 01-24.84-24.84V301.23h-47.82a24.87 24.87 0 01-24.84-24.84v-79.25a24.86 24.86 0 0124.84-24.83h47.83v-39.68c0-39.35 12.36-72.83 35.73-96.81S275.18-1 313.78-1l62.53.1a24.87 24.87 0 0124.79 24.84v73.58a24.86 24.86 0 01-24.83 24.83h-42.1c-12.84 0-16.11 2.57-16.81 3.36-1.15 1.31-2.52 5-2.52 15.22v31.37h58.27a25.23 25.23 0 0112.29 3.13 24.91 24.91 0 0112.78 21.72v79.24a24.86 24.86 0 01-24.83 24.83h-58.51v184.94A24.86 24.86 0 01290 511zm-76.81-30h71.63V287.79a16.6 16.6 0 0116.58-16.58h66.73v-68.89H301.4a16.6 16.6 0 01-16.58-16.58V141c0-11.72 1.19-25.06 10-35.08 10.7-12.12 27.55-13.52 39.3-13.52h36.93V29.11l-57.3-.11c-62 0-100.56 39.7-100.56 103.61v53.11a16.6 16.6 0 01-16.58 16.58h-56.09v68.89h56.09a16.6 16.6 0 0116.58 16.58zM376.25 29.12z" transform="translate(-110.5 1)" fill="#fff"/></svg>