<svg id="Слой_1" data-name="Слой 1" xmlns="http://www.w3.org/2000/svg" viewBox="0 0 510.95 511"><path d="M498.22 221.26L289.74 12.78a47 47 0 00-66.53 0L14.87 221.12c-.07.07-.15.14-.21.21A47 47 0 0046 301.48a14.08 14.08 0 001.45.07h8.31V455a55.11 55.11 0 0055.02 55h81.55a15 15 0 0015-15V374.77a25.15 25.15 0 0125.12-25.12h48.11a25.14 25.14 0 0125.11 25.12V495a15 15 0 0015 15h81.56a55.11 55.11 0 0055-55V301.55h7.7a47 47 0 0033.29-80.29zM477 266.6a17 17 0 01-12.09 5h-22.65a15 15 0 00-15 15V455a25.15 25.15 0 01-25.12 25.11h-66.55V374.77a55.12 55.12 0 00-55.06-55.06h-48.11a55.12 55.12 0 00-55.06 55.06v105.29h-66.58A25.15 25.15 0 0185.66 455V286.58a15 15 0 00-15-15H47.7a17.08 17.08 0 01-11.77-29.17L244.39 34a17.08 17.08 0 0124.17 0L477 242.34a.94.94 0 00.1.1 17.13 17.13 0 01-.1 24.16z" transform="translate(-1 1)" fill="#f9dc0b"/></svg>