<svg version="1.1" id="Capa_1" xmlns="http://www.w3.org/2000/svg" x="0" y="0" viewBox="0 0 512.003 512.003" xml:space="preserve"><path d="M134.544 251.648c-4.807 0-9.615.26-14.396.772-55.64 5.979-108.764 58.886-114.942 114.543-8.218 71.417 43.022 135.969 114.438 144.187a130.148 130.148 0 0083.408-18.657 93.977 93.977 0 0141.991-14.752c3.61-.321 7.272-.477 10.986-.477 3.523 0 7.02.121 10.482.373a94.146 94.146 0 0142.624 14.891c61.177 37.756 141.374 18.769 179.13-42.407a130.103 130.103 0 0018.544-83.209c-6.17-55.614-59.302-108.512-114.943-114.491a134.558 134.558 0 00-14.353-.772H134.544z" fill="#ffd33f"/><circle cx="316.772" cy="381.811" r="26.033" fill="#ea3836"/><path d="M482.4 307.783C377.957 424.834 142.735 468.396 50.866 481.334c42.945 36.307 104.399 40.793 152.16 11.116a93.977 93.977 0 0141.991-14.752c3.627-.286 7.306-.434 11.012-.434 3.523 0 7.02.121 10.482.373a94.146 94.146 0 0142.624 14.891c61.177 37.756 141.374 18.769 179.13-42.407a130.103 130.103 0 0018.544-83.209 123.484 123.484 0 00-24.409-59.129z" fill="#ffac3e"/><path fill="#383856" d="M117.189 321.068h34.71v43.388h43.387v34.71h-43.387v43.388h-34.71v-43.388H73.801v-34.71h43.388z"/><g fill="#91cece"><circle cx="377.514" cy="329.746" r="26.033"/><circle cx="377.514" cy="433.876" r="26.033"/></g><circle cx="438.301" cy="381.811" r="26.033" fill="#ea3836"/><path fill="#874d1b" d="M238.674 251.648v-34.71h34.71v34.71"/><path d="M264.707 216.938h-17.355v-26.033c0-9.589-7.766-17.355-17.355-17.355h-43.388c-19.169 0-34.71-15.541-34.71-34.71s15.541-34.71 34.71-34.71h138.84c9.589 0 17.355-7.766 17.355-17.355s-7.766-17.355-17.355-17.355h-43.388c-19.169 0-34.71-15.541-34.71-34.71V0h17.355v34.71c0 9.589 7.766 17.355 17.355 17.355h43.388c19.169 0 34.71 15.541 34.71 34.71s-15.541 34.71-34.71 34.71h-138.84c-9.589 0-17.355 7.766-17.355 17.355s7.766 17.355 17.355 17.355h43.388c19.169 0 34.71 15.541 34.71 34.71v26.033z" fill="#383856"/><path d="M330.257 359.649a25.727 25.727 0 013.87 13.485c0 14.379-11.654 26.033-26.033 26.033a25.739 25.739 0 01-13.485-3.87c7.411 12.27 23.377 16.21 35.647 8.799 12.27-7.411 16.21-23.377 8.799-35.647a26.008 26.008 0 00-8.798-8.8z" fill="#d62121"/><path d="M390.999 307.584a25.727 25.727 0 013.87 13.485c0 14.379-11.654 26.033-26.033 26.033a25.739 25.739 0 01-13.485-3.87c7.411 12.27 23.377 16.21 35.647 8.799 12.27-7.411 16.21-23.377 8.799-35.647a25.99 25.99 0 00-8.798-8.8z" fill="#83b2b7"/><path d="M451.742 359.649a25.736 25.736 0 013.87 13.485c0 14.379-11.654 26.033-26.033 26.033a25.739 25.739 0 01-13.485-3.87c7.411 12.27 23.377 16.21 35.647 8.799 12.27-7.411 16.21-23.377 8.799-35.647a26.008 26.008 0 00-8.798-8.8z" fill="#d62121"/><path d="M390.999 411.714a25.727 25.727 0 013.87 13.485c0 14.379-11.654 26.033-26.033 26.033a25.739 25.739 0 01-13.485-3.87c7.411 12.27 23.377 16.21 35.647 8.799 12.27-7.411 16.21-23.377 8.799-35.647a25.999 25.999 0 00-8.798-8.8z" fill="#83b2b7"/><path d="M73.801 390.688v8.478h43.388v43.388h34.71v-43.388h43.388v-34.71h-14.483c-34.277 23.898-86.541 26.293-107.003 26.232z" fill="#202033"/><path d="M238.674 249.279v2.369h34.71v-28.506a65.668 65.668 0 01-34.71 26.137z" fill="#6b3713"/></svg>