<svg id="Capa_1" height="512" width="512" xmlns="http://www.w3.org/2000/svg"><path d="M51.72 410.315C19.097 367.196-.189 313.427.001 255.145.462 114.377 115.604-.2 256.372 0 397.586.201 512 114.739 512 256c0 73.728-31.168 140.177-81.046 186.889-3.988 3.735-10.246 3.516-13.997-.457-46.673-49.43-112.818-80.278-186.167-80.278-57.878 0-111.269 19.207-154.148 51.595-7.855 5.933-18.982 4.416-24.922-3.434z" fill="#20b7a1"/><path d="M483.17 256c0 125.462-101.708 227.17-227.17 227.17S28.83 381.462 28.83 256 130.537 28.83 256 28.83 483.17 130.538 483.17 256z" fill="#35e298"/><path d="M498.499 235.233l-113.084 28.959a2 2 0 01-2.434-1.441l-10.667-41.656a2 2 0 011.441-2.434l113.084-28.959c1.448-.371 2.776.919 2.447 2.377l-4.853 21.559a2 2 0 00.451 1.762l14.618 16.573c.989 1.12.445 2.89-1.003 3.26z" fill="#ff50b5"/><path d="M511.413 142.293l-82.543 82.543a2 2 0 01-2.828 0l-30.406-30.406a2 2 0 010-2.828l82.543-82.543c1.057-1.057 2.856-.624 3.317.798l6.81 21.023a2 2 0 001.286 1.286l21.023 6.81c1.422.461 1.855 2.261.798 3.317z" fill="#232e7a"/><path d="M432.5 90v351.429C386.573 485.157 324.421 512 256 512c-59.022 0-113.379-19.974-156.68-53.531-12.522-9.704-19.82-24.683-19.82-40.525V90z" fill="#865cb2"/><path d="M100 80v378.994a257.527 257.527 0 01-49-49.636V80c5.93-7.915 49 0 49 0z" fill="#644189"/><path d="M433 110H85c-19.33 0-35-15.67-35-35s15.67-35 35-35h348" fill="#fff68e"/><path d="M126.278 110H85c-19.33 0-35-15.67-35-35s15.67-35 35-35h41.278c-19.33 0-35 15.67-35 35s15.67 35 35 35zm151.976-39.572h-119.02a5.086 5.086 0 110-10.172h119.02a5.086 5.086 0 110 10.172zm158.086-5.086a5.086 5.086 0 00-5.086-5.086H328.833a5.086 5.086 0 100 10.172h102.421a5.086 5.086 0 005.086-5.086zm.507 21.312a5.086 5.086 0 00-5.086-5.086H239.873a5.086 5.086 0 100 10.172h191.889a5.087 5.087 0 005.085-5.086z" fill="#ffcd71"/><path d="M438 110a5 5 0 01-5 5H85c-22.056 0-40-17.944-40-40s17.944-40 40-40h348a5 5 0 110 10H85c-16.542 0-30 13.458-30 30s13.458 30 30 30h348a5 5 0 015 5z" fill="#533672"/><path d="M382 302.5c0 62.132-50.368 112.5-112.5 112.5S157 364.632 157 302.5 207.368 190 269.5 190 382 240.368 382 302.5z" fill="#ffa90b"/><path d="M382 302.5c0 21.054-5.784 40.757-15.849 57.607-16.85 10.065-36.553 15.849-57.607 15.849-62.132 0-112.5-50.368-112.5-112.5 0-21.054 5.784-40.757 15.849-57.607C228.743 195.784 248.446 190 269.5 190c62.132 0 112.5 50.368 112.5 112.5z" fill="#ffc14f"/><path d="M254.021 243.169c0 7.086-7.897 12.831-17.639 12.831s-17.639-5.745-17.639-12.831 7.897-12.831 17.639-12.831 17.639 5.745 17.639 12.831zm28.757-33.111c-7.515 0-13.607 4.432-13.607 9.898 0 5.467 6.092 9.898 13.607 9.898s13.607-4.432 13.607-9.898-6.092-9.898-13.607-9.898zM349.401 270c-7.515 0-13.607 4.432-13.607 9.898 0 5.467 6.092 9.898 13.607 9.898s13.607-4.432 13.607-9.898c0-5.467-6.092-9.898-13.607-9.898zm-44.034 59.345c-4.961 0-8.982 2.925-8.982 6.534s4.022 6.534 8.982 6.534c4.961 0 8.982-2.925 8.982-6.534.001-3.609-4.021-6.534-8.982-6.534zm27.363-86.937c-4.961 0-8.982 2.925-8.982 6.534s4.022 6.534 8.982 6.534c4.961 0 8.982-2.925 8.982-6.534s-4.021-6.534-8.982-6.534z" fill="#ffa90b"/><path d="M164.992 373.506l31.502 31.502c-15.288 12.732-33.602 19.433-51.406 19.903.471-17.804 7.172-36.117 19.904-51.405zM115.5 363.5c6.613-.175 13.415-2.664 19.094-7.393l-11.701-11.701c-4.729 5.679-7.218 12.481-7.393 19.094zm97.893 71.406c-4.729 5.678-7.218 12.481-7.393 19.094 6.613-.175 13.415-2.664 19.094-7.393z" fill="#fff68e"/><path d="M270 300v125.435c0 10.529-10.654 17.714-20.416 13.768l-84.592-34.195-34.195-84.592c-3.946-9.762 3.239-20.416 13.768-20.416z" fill="#7fbed7"/><path d="M282.064 322.938l-89.657 89.657c-5.476 5.476-14.353 5.476-19.829 0l-15.174-15.174c-5.476-5.476-5.476-14.353 0-19.829l89.657-89.657c11.431-11.431 28.459-13.849 42.26-7.257 6.592 13.801 4.174 30.83-7.257 42.26zM195.001 284.5c-6.9-3.296-15.415-2.087-21.13 3.628l-51.922 51.922a7.01 7.01 0 000 9.914l7.587 7.587a7.01 7.01 0 009.914 0l51.922-51.922c5.716-5.714 6.925-14.229 3.629-21.129zm86.372 111.13l-51.922 51.922a7.01 7.01 0 01-9.914 0l-7.587-7.587a7.01 7.01 0 010-9.914l51.922-51.922c5.715-5.715 14.23-6.925 21.13-3.628 3.295 6.899 2.086 15.414-3.629 21.129z" fill="#a6d2e3"/><path d="M292.717 292.627c1.182 10.804-2.369 22.028-10.652 30.312l-89.657 89.657c-5.447 5.447-14.26 5.475-19.743.084-5.391-5.482-5.364-14.296.083-19.743l89.657-89.657c8.284-8.285 19.507-11.835 30.312-10.653z" fill="#c0dfeb"/><path d="M242.947 335.202l-8.1-8.1a5 5 0 010-7.071 5 5 0 017.071 0l8.1 8.1a5 5 0 010 7.071 5 5 0 01-7.071 0zm-7.071 14.142a5 5 0 000-7.071l-8.1-8.1a5 5 0 00-7.071 0 5 5 0 000 7.071l8.1 8.1a5 5 0 007.071 0zm-48.424 48.424a5 5 0 000-7.071l-8.1-8.1a5 5 0 00-7.071 0 5 5 0 000 7.071l8.1 8.1a5 5 0 007.071 0z" fill="#7fbed7"/><path d="M296.252 308.751l-15.37 15.37-35.003-35.002 15.37-15.37c11.431-11.431 28.459-13.849 42.26-7.257 6.592 13.8 4.174 30.828-7.257 42.259z" fill="#ff3c7d"/><path d="M296.252 308.751l-15.37 15.37-19.66-19.659 15.37-15.37c8.284-8.284 19.507-11.834 30.312-10.652 1.182 10.803-2.368 22.027-10.652 30.311z" fill="#ff50b5"/><path d="M323.351 158.459a30.933 30.933 0 00-9.792 9.792 1.173 1.173 0 01-1.987 0 30.933 30.933 0 00-9.792-9.792 1.173 1.173 0 010-1.987 30.933 30.933 0 009.792-9.792 1.173 1.173 0 011.987 0 30.933 30.933 0 009.792 9.792c.733.46.733 1.528 0 1.987zM179.428 459.987a30.933 30.933 0 00-9.792 9.792 1.173 1.173 0 01-1.987 0 30.933 30.933 0 00-9.792-9.792 1.173 1.173 0 010-1.987 30.933 30.933 0 009.792-9.792 1.173 1.173 0 011.987 0 30.933 30.933 0 009.792 9.792 1.173 1.173 0 010 1.987zm197.052-49.318a41.486 41.486 0 0013.133 13.133 1.573 1.573 0 010 2.665A41.486 41.486 0 00376.48 439.6a1.573 1.573 0 01-2.665 0 41.486 41.486 0 00-13.133-13.133 1.573 1.573 0 010-2.665 41.486 41.486 0 0013.133-13.133 1.573 1.573 0 012.665 0zm-232.665-210a41.486 41.486 0 01-13.133 13.133 1.573 1.573 0 000 2.665 41.486 41.486 0 0113.133 13.133 1.573 1.573 0 002.665 0 41.486 41.486 0 0113.133-13.133 1.573 1.573 0 000-2.665 41.486 41.486 0 01-13.133-13.133 1.573 1.573 0 00-2.665 0z" fill="#644189"/><path d="M168.946 163.399a49.146 49.146 0 00-15.555 15.554 1.862 1.862 0 01-3.156 0 49.136 49.136 0 00-15.555-15.554 1.862 1.862 0 010-3.156 49.139 49.139 0 0015.555-15.555 1.862 1.862 0 013.156 0 49.139 49.139 0 0015.555 15.555 1.862 1.862 0 010 3.156z" fill="#ffa90b"/><path d="M352.006 332.071a30.933 30.933 0 00-9.792 9.792 1.173 1.173 0 01-1.987 0 30.933 30.933 0 00-9.792-9.792 1.173 1.173 0 010-1.987 30.933 30.933 0 009.792-9.792 1.173 1.173 0 011.987 0 30.933 30.933 0 009.792 9.792 1.173 1.173 0 010 1.987z" fill="#fff68e"/><path d="M382.53 172.013a30.933 30.933 0 00-9.792 9.792 1.173 1.173 0 01-1.987 0 30.933 30.933 0 00-9.792-9.792 1.173 1.173 0 010-1.987 30.933 30.933 0 009.792-9.792 1.173 1.173 0 011.987 0 30.933 30.933 0 009.792 9.792c.733.46.733 1.528 0 1.987z" fill="#ffc14f"/><path d="M229.53 162.013a30.933 30.933 0 00-9.792 9.792 1.173 1.173 0 01-1.987 0 30.933 30.933 0 00-9.792-9.792 1.173 1.173 0 010-1.987 30.933 30.933 0 009.792-9.792 1.173 1.173 0 011.987 0 30.933 30.933 0 009.792 9.792c.733.46.733 1.528 0 1.987z" fill="#c0dfeb"/></svg>