<svg id="Слой_1" data-name="Слой 1" xmlns="http://www.w3.org/2000/svg" viewBox="0 0 512 433.18"><path d="M504.09 50.86C497.84 43.21 488.47 39 477.71 39a51.86 51.86 0 00-18.41 3.66L25.91 208.11c-23 8.77-26.1 21.94-25.9 29s4 20 27.5 27.51l.42.12 89.9 25.73 48.62 139c6.62 18.95 21.5 30.73 38.83 30.73 10.93 0 21.67-4.58 31.08-13.24L292 395.8l80.66 64.95.77.61a1.84 1.84 0 00.22.17c9 6.95 18.75 10.63 28.3 10.63 18.67 0 33.54-13.82 37.88-35.22l71-350.64c2.85-14.05.46-26.64-6.74-35.44zM147.9 285.6L321.34 197l-108 114.75a14.91 14.91 0 00-3.64 6.68l-20.83 84.36zM216 424.93a31.3 31.3 0 01-2.17 1.8l19.32-78.25 35.15 28.3zM481.43 80.37L410.41 431c-.68 3.36-2.86 11.17-8.48 11.17-2.77 0-6.25-1.52-9.82-4.26l-91.39-73.59-54.42-43.81 156.17-165.95a15 15 0 00-17.74-23.63L127.86 262.15l-91.12-26.07L470 70.69a22 22 0 017.71-1.69c.92 0 2.56.11 3.16.86.8.97 1.81 4.28.56 10.51z" transform="translate(0 -39)" fill="#f9dc0b"/></svg>