<svg id="Capa_1" data-name="Capa 1" xmlns="http://www.w3.org/2000/svg" viewBox="0 0 477.12 512"><path d="M256 288.39c-153.84 0-238.56 72.78-238.56 204.92A18.69 18.69 0 0036.13 512h439.74a18.69 18.69 0 0018.69-18.69c0-132.14-84.72-204.92-238.56-204.92zM55.49 474.63c7.35-98.81 74.72-148.87 200.51-148.87s193.16 50.06 200.52 148.87zM256 0c-70.67 0-123.95 54.36-123.95 126.44 0 74.19 55.6 134.54 124 134.54s124-60.35 124-134.54C380 54.36 326.67 0 256 0zm0 223.61c-47.74 0-86.58-43.59-86.58-97.17 0-51.61 36.41-89.07 86.58-89.07 49.36 0 86.58 38.29 86.58 89.07 0 53.56-38.84 97.17-86.58 97.17z" transform="translate(-17.44)" fill="#fff"/></svg>